<mxfile host="app.diagrams.net" modified="2023-06-14T11:18:56.485Z" agent="Mozilla/5.0 (Windows NT 10.0; Win64; x64) AppleWebKit/537.36 (KHTML, like Gecko) Chrome/113.0.0.0 Safari/537.36" version="21.3.8" etag="VEeR_H-lRbLU6CiE5f2d" type="github">
  <diagram name="PÃ¡gina-1" id="I1CS4P7E9VnVcXIOuq2x">
    <mxGraphModel>
      <root>
        <mxCell id="0" />
        <mxCell id="1" parent="0" />
      </root>
    </mxGraphModel>
  </diagram>
</mxfile>
